<?xml version="1.0" standalone="no"?><!DOCTYPE svg PUBLIC "-//W3C//DTD SVG 1.1//EN" "http://www.w3.org/Graphics/SVG/1.1/DTD/svg11.dtd"><svg t="1555255033720" class="icon" style="" viewBox="0 0 1024 1024" version="1.1" xmlns="http://www.w3.org/2000/svg" p-id="1288" xmlns:xlink="http://www.w3.org/1999/xlink" width="64" height="64"><defs><style type="text/css"></style></defs><path d="M310.857143 201.142857h475.428571c40.228571 0 73.142857 32.914286 73.142857 73.142857v548.571429c0 40.228571-32.914286 73.142857-73.142857 73.142857h-475.428571c-40.228571 0-73.142857-32.914286-73.142857-73.142857v-548.571429c0-40.228571 32.914286-73.142857 73.142857-73.142857z" fill="#EEF5FE" p-id="1289"></path><path d="M482.742857 376.685714H475.428571c-7.314286-3.657143-18.285714-7.314286-21.942857-14.628571s-7.314286-10.971429-7.314285-18.285714V73.142857h274.285714v266.971429c0 18.285714-14.628571 36.571429-36.571429 36.571428-7.314286 0-14.628571-3.657143-18.285714-7.314285L585.142857 314.514286l-84.114286 54.857143c-3.657143 3.657143-10.971429 7.314286-18.285714 7.314285zM585.142857 256c7.314286 0 18.285714 3.657143 25.6 7.314286l58.514286 36.571428V128h-164.571429v175.542857l58.514286-36.571428c3.657143-7.314286 14.628571-10.971429 21.942857-10.971429z" fill="#3496FB" p-id="1290"></path><path d="M738.742857 950.857143H285.257143C186.514286 950.857143 109.714286 874.057143 109.714286 775.314286V248.685714C109.714286 149.942857 186.514286 73.142857 285.257143 73.142857h457.142857C837.485714 73.142857 914.285714 149.942857 914.285714 248.685714v530.285715c0 95.085714-76.8 171.885714-175.542857 171.885714zM285.257143 131.657143C219.428571 131.657143 164.571429 182.857143 164.571429 248.685714v530.285715c0 65.828571 54.857143 117.028571 117.028571 117.028571h457.142857c65.828571 0 117.028571-54.857143 117.028572-117.028571V248.685714c0-65.828571-54.857143-117.028571-117.028572-117.028571H285.257143z" fill="#262626" p-id="1291"></path><path d="M109.714286 694.857143h804.571428v54.857143H109.714286z" fill="#262626" p-id="1292"></path></svg>