<?xml version="1.0" standalone="no"?><!DOCTYPE svg PUBLIC "-//W3C//DTD SVG 1.1//EN" "http://www.w3.org/Graphics/SVG/1.1/DTD/svg11.dtd"><svg class="icon" width="48px" height="48.00px" viewBox="0 0 1024 1024" version="1.1" xmlns="http://www.w3.org/2000/svg"><path d="M514.219727 512m-508.819876 0a508.819876 508.819876 0 1 0 1017.639751 0 508.819876 508.819876 0 1 0-1017.639751 0Z" fill="#F8E71C" /><path d="M514.219727 512m-355.442485 0a355.442484 355.442484 0 1 0 710.884969 0 355.442484 355.442484 0 1 0-710.884969 0Z" fill="#DF71F5" /><path d="M865.356323 601.946634L604.16 863.136596c-49.67354 49.67354-130.219727 49.67354-179.893267 0L163.07677 601.946634c-49.67354-49.67354-49.67354-130.219727 0-179.893268l261.189963-261.189962c49.67354-49.67354 130.219727-49.67354 179.893267 0l261.189963 261.189962c49.67354 49.67354 49.67354 130.219727 0 179.893268z" fill="#FFFFFF" /><path d="M514.226087 894.034683A120.06877 120.06877 0 0 1 428.769789 858.63354L167.579826 597.449938a120.482186 120.482186 0 0 1-35.197615-79.019727 132.999155 132.999155 0 0 0 26.204224 37.131131L419.776398 816.751304a132.700224 132.700224 0 0 0 94.449689 39.115528 132.700224 132.700224 0 0 0 94.436969-39.115528l261.189963-261.189962a133.100919 133.100919 0 0 0 26.204223-37.143851 120.475826 120.475826 0 0 1-35.197615 79.032447l-261.189962 261.189963a120.06241 120.06241 0 0 1-85.443578 35.394782z" fill="#DF71F5" /><path d="M514.219727 512m-117.772721 0a117.77272 117.77272 0 1 0 235.545441 0 117.77272 117.77272 0 1 0-235.545441 0Z" fill="#DF71F5" /><path d="M514.219727 512h164.501466"  /><path d="M514.219727 343.644224V512"  /></svg>