<?xml version="1.0" standalone="no"?><!DOCTYPE svg PUBLIC "-//W3C//DTD SVG 1.1//EN" "http://www.w3.org/Graphics/SVG/1.1/DTD/svg11.dtd"><svg class="icon" width="32px" height="32.00px" viewBox="0 0 1024 1024" version="1.1" xmlns="http://www.w3.org/2000/svg"><path d="M1024 827.633778L845.994667 649.628444c93.966222-114.545778 87.495111-283.889778-19.456-390.855111a290.702222 290.702222 0 0 0-206.193778-85.404444 290.730667 290.730667 0 0 0-206.193778 85.404444c-113.877333 113.877333-113.877333 298.510222 0 412.387556a290.702222 290.702222 0 0 0 206.193778 85.404444c65.564444 0 131.100444-22.001778 184.661333-65.948444l178.005334 178.005333L1024 827.633778zM620.344889 698.595556a232.149333 232.149333 0 0 1-165.205333-68.423112c-91.093333-91.093333-91.093333-239.317333 0-330.410666a232.092444 232.092444 0 0 1 165.205333-68.423111c62.407111 0 121.073778 24.305778 165.205333 68.423111 91.093333 91.093333 91.093333 239.317333 0 330.410666a232.064 232.064 0 0 1-165.205333 68.423112zM0 170.282667h314.225778v57.969777H0zM0 819.143111h473.642667v57.969778H0zM0 497.379556h241.706667v57.969777H0z" fill="#E53A40" /></svg>