<?xml version="1.0" standalone="no"?><!DOCTYPE svg PUBLIC "-//W3C//DTD SVG 1.1//EN" "http://www.w3.org/Graphics/SVG/1.1/DTD/svg11.dtd"><svg t="1555255040243" class="icon" style="" viewBox="0 0 1024 1024" version="1.1" xmlns="http://www.w3.org/2000/svg" p-id="1421" xmlns:xlink="http://www.w3.org/1999/xlink" width="64" height="64"><defs><style type="text/css"></style></defs><path d="M310.857143 201.142857h475.428571c40.228571 0 73.142857 32.914286 73.142857 73.142857v552.228572l-87.771428 69.485714H310.857143c-40.228571 0-73.142857-32.914286-73.142857-73.142857v-548.571429c0-40.228571 32.914286-73.142857 73.142857-73.142857z" fill="#EFF0FE" p-id="1422"></path><path d="M680.228571 950.857143H256c-80.457143 0-146.285714-65.828571-146.285714-146.285714V219.428571c0-80.457143 65.828571-146.285714 146.285714-146.285714h512c80.457143 0 146.285714 65.828571 146.285714 146.285714v515.657143c0 43.885714-18.285714 87.771429-54.857143 113.371429l-87.771428 69.485714c-25.6 21.942857-58.514286 32.914286-91.428572 32.914286zM256 128C204.8 128 164.571429 168.228571 164.571429 219.428571v585.142858c0 51.2 40.228571 91.428571 91.428571 91.428571h424.228571c21.942857 0 40.228571-7.314286 58.514286-18.285714l87.771429-69.485715c21.942857-18.285714 32.914286-43.885714 32.914285-73.142857V219.428571c0-51.2-40.228571-91.428571-91.428571-91.428571H256z" fill="#262626" p-id="1423"></path><path d="M694.857143 943.542857c-14.628571 0-29.257143-10.971429-29.257143-29.257143v-146.285714c0-36.571429 29.257143-65.828571 65.828571-65.828571h146.285715c14.628571 0 29.257143 10.971429 29.257143 29.257142s-10.971429 29.257143-29.257143 29.257143h-146.285715c-3.657143 0-7.314286 3.657143-7.314285 7.314286v146.285714c0 14.628571-14.628571 29.257143-29.257143 29.257143z" fill="#262626" p-id="1424"></path><path d="M394.971429 310.857143h91.428571c14.628571 0 29.257143 10.971429 29.257143 29.257143 0 14.628571-10.971429 29.257143-29.257143 29.257143h-91.428571c-18.285714-3.657143-29.257143-14.628571-29.257143-32.914286 0-14.628571 10.971429-25.6 29.257143-25.6zM394.971429 475.428571h237.714285c14.628571 0 29.257143 10.971429 29.257143 29.257143 0 14.628571-10.971429 29.257143-29.257143 29.257143h-237.714285c-14.628571 0-29.257143-10.971429-29.257143-29.257143s10.971429-29.257143 29.257143-29.257143z" fill="#5360FF" p-id="1425"></path></svg>